# xmcd
#
# Track frame offsets:
#	150
#	11809
#	24025
#	37180
#	54470
#	75862
#	89820
#	102892
#	117952
#	135127
#	152757
#	174435
#	189930
#	203612
#	216092
#	229192
#	243652
#	260035
#	276692
#	293017
#
# Disc length: 4107 seconds
#
# Revision: 1
# Processed by: cddbd v1.5.2PL0 Copyright (c) Steve Scherf et al.
# Submitted via: audiograbber 1.83.01
#
DISCID=12100914
DTITLE=Various Artist - Hittimarkkinat 2 [CD2)
DYEAR=2002
DGENRE=Pop
TTITLE0=Topi Sorsakoski - Kun Kuu Jo Nousee
TTITLE1=Pentti Hietanen - Kuin Aurinko Polttaa
TTITLE2=Charlies - Kesän Tyttö
TTITLE3=Taikakuu - Rakkauden Jälkeen
TTITLE4=Harri Marstio - Kalpeaakin Kalpeempaa
TTITLE5=Kari Vepsä - Niin Moni Meistä
TTITLE6=Jamppa Tuominen - Silmät Kuin Enkelillä
TTITLE7=Maarit Peltoniemi - Satujen Saari
TTITLE8=Taina Kokkonen - Vain Tänään
TTITLE9=Anna Hanski - Tunteisiin
TTITLE10=Marion - Tanssi Loppuun Rakkkauden
TTITLE11=Lea Laven - Kaunista Veeraa
TTITLE12=Jorma Kääriäinen - Mä Elän Vieläkin
TTITLE13=Tapio Heinonen - Eilen Kun Mä Tiennyt En
TTITLE14=Neljän Suora - Kesäyö
TTITLE15=Rainer Friman - Rakkaus
TTITLE16=Isto Hiltunen - Alla Kuuman Auringon
TTITLE17=Maarit Peltoniemi and Isto Hiltunen - Kylmää Sekä Kuumaa
TTITLE18=Markku Aro - Jotain Taikaa Sinussa On
TTITLE19=Sanna Pietiäinen - Villi Ja Viidentoista
EXTD=TR.
EXTT0=
EXTT1=
EXTT2=
EXTT3=
EXTT4=
EXTT5=
EXTT6=
EXTT7=
EXTT8=
EXTT9=
EXTT10=
EXTT11=
EXTT12=
EXTT13=
EXTT14=
EXTT15=
EXTT16=
EXTT17=
EXTT18=
EXTT19=
PLAYORDER=
